<svg version="1.1" id="Layer_1" xmlns="http://www.w3.org/2000/svg" xmlns:xlink="http://www.w3.org/1999/xlink" x="0px" y="0px"
	 width="100%" viewBox="0 0 1063 1069" enable-background="new 0 0 1063 1069" xml:space="preserve">
<path fill="#FFFFFE" opacity="1.000000" stroke="none" 
	d="
M597.000000,1070.000000 
	C398.023224,1070.000000 199.546432,1070.000000 1.034820,1070.000000 
	C1.034820,713.731567 1.034820,357.463104 1.034820,1.097327 
	C355.226990,1.097327 709.453979,1.097327 1063.840576,1.097327 
	C1063.840576,357.333282 1063.840576,713.666626 1063.840576,1070.000000 
	C908.462708,1070.000000 752.981384,1070.000000 597.000000,1070.000000 
M622.369934,357.656769 
	C622.491821,357.280823 622.613647,356.904846 622.785095,356.217590 
	C622.785095,356.217590 623.010254,355.997040 623.691589,355.912231 
	C624.141479,354.964386 624.591431,354.016571 625.003113,353.007233 
	C625.003113,353.007233 625.069519,353.036163 625.761108,352.954315 
	C628.465271,348.710663 631.675049,344.701569 633.773560,340.177002 
	C638.938416,329.041504 643.465271,317.407013 643.740173,305.098053 
	C644.046021,291.401886 645.452759,277.587402 642.095032,263.916779 
	C640.136047,255.941284 640.166809,247.425140 637.775696,239.619949 
	C634.218872,228.009872 629.547363,216.716064 624.903503,205.472198 
	C621.186646,196.472885 617.301514,187.471436 612.571411,178.983429 
	C608.259766,171.246399 602.880127,164.074066 597.604187,156.923599 
	C596.044495,154.809769 593.239685,153.614685 591.000000,152.000000 
	C591.000000,152.000000 591.002136,151.993912 591.036621,151.269226 
	C590.038879,150.173859 589.041138,149.078491 587.994446,147.992844 
	C587.994446,147.992844 588.022888,147.951721 588.036316,147.202621 
	C587.148865,145.266083 586.495361,143.174744 585.333984,141.419449 
	C579.912231,133.225037 574.278931,125.170532 568.865173,116.970985 
	C565.603760,112.031319 562.488037,106.985954 559.519409,101.864876 
	C555.733154,95.333443 551.863770,88.821953 548.575684,82.037514 
	C544.778076,74.201820 541.637085,66.049889 538.043457,58.111095 
	C537.517517,56.949295 536.096863,55.508526 535.030701,55.458282 
	C533.848816,55.402576 531.985657,56.508820 531.475586,57.601997 
	C527.551575,66.012016 524.034973,74.612793 520.080139,83.007469 
	C517.772156,87.906448 514.621826,92.410324 512.340454,97.319664 
	C509.903961,102.562820 504.883453,106.630974 505.007080,112.998047 
	C505.007080,112.998047 505.077301,113.054901 504.362091,113.098022 
	C503.696503,114.498688 503.030914,115.899361 502.155823,117.247322 
	C502.155823,117.247322 502.341858,117.357147 501.612610,117.207993 
	C499.662384,119.879944 498.249786,123.473480 495.631775,125.000664 
	C492.005493,127.116028 491.776245,129.723679 492.000824,132.999893 
	C492.000824,132.999893 492.051147,133.038025 491.338348,133.069077 
	C487.712006,134.601135 486.384613,137.553024 486.008942,141.182129 
	C486.008942,141.182129 486.278992,141.277328 485.528595,141.170685 
	C484.766602,142.588699 484.004578,144.006699 483.153046,145.752899 
	C483.153046,145.752899 482.893280,145.972580 482.185608,146.047333 
	C478.258362,147.343155 476.981171,150.926010 474.794098,153.951523 
	C467.436005,164.130402 459.679321,174.000412 454.286835,185.463760 
	C451.365662,191.673599 448.099487,197.720871 445.157104,203.921265 
	C444.768768,204.739487 445.378998,206.031570 445.363586,207.604111 
	C445.259766,207.745377 445.155975,207.886642 444.416931,208.311996 
	C439.834869,213.945541 438.955536,221.069336 436.416504,227.546661 
	C428.810699,246.949982 425.387756,267.142303 425.304688,287.709320 
	C425.255035,299.999664 427.614685,312.348846 429.478668,324.582092 
	C430.942017,334.186005 435.310852,342.889252 440.335938,351.089539 
	C442.058899,353.901215 445.411865,355.714050 448.000000,358.000000 
	C448.000000,358.000000 448.018127,357.981323 447.975830,358.718048 
	C452.016022,363.607422 455.991516,368.553680 460.175629,373.316650 
	C460.719360,373.935608 462.338684,373.609711 463.959534,373.864746 
	C464.325104,374.212067 464.690643,374.559357 465.066528,375.617035 
	C469.898010,382.849091 478.252136,384.781494 485.157410,388.882324 
	C485.712189,389.211792 486.754272,388.720795 487.862671,388.607971 
	C487.862671,388.607971 488.083649,388.800079 488.146759,389.561737 
	C490.865143,390.675049 493.583557,391.788330 496.966278,393.173676 
	C496.379822,390.451843 496.382629,388.444305 495.535004,386.905090 
	C492.860199,382.048126 489.263489,377.620697 487.132446,372.560059 
	C483.598755,364.168304 484.212708,355.660004 487.309357,346.930450 
	C490.532440,337.844391 497.601532,332.003082 503.631836,325.338196 
	C510.057800,318.235962 517.174988,311.726349 524.313904,305.318451 
	C527.109192,302.809418 527.813782,296.110321 534.200928,299.489471 
	C534.288086,299.535583 534.602112,298.979797 534.875427,298.875244 
	C536.539490,298.238586 538.222351,297.651276 540.451233,297.263763 
	C540.967773,297.846710 541.484314,298.429657 542.047852,299.668335 
	C542.709351,300.104248 543.370911,300.540131 544.001953,301.001221 
	C544.001953,301.001221 544.024414,300.969940 543.997253,301.714813 
	C548.163391,306.450409 552.251160,311.257935 556.516296,315.902618 
	C561.379517,321.198639 566.304749,326.447113 571.425598,331.490173 
	C572.607422,332.654083 574.694702,332.898590 576.358643,333.643890 
	C576.358643,333.643890 576.432739,333.668304 576.202271,334.398041 
	C576.615295,335.270691 576.934692,336.204071 577.455811,337.006500 
	C582.167297,344.261292 584.424194,352.233704 583.980347,360.836639 
	C583.693909,366.388702 582.867432,371.912933 582.251709,377.770874 
	C582.251709,377.770874 582.043457,378.017487 581.314636,378.067993 
	C580.213745,379.371765 579.057373,380.633514 578.029175,381.992310 
	C577.169800,383.127930 576.729736,384.978333 575.636169,385.468353 
	C571.630676,387.263062 573.038513,389.931824 573.758362,393.063416 
	C577.200562,391.897156 580.505066,391.256683 583.301941,389.702667 
	C586.450867,387.953094 589.142395,385.380249 592.340271,382.915649 
	C592.340271,382.915649 592.725464,382.823151 593.519836,382.932037 
	C594.472473,382.709656 595.591431,382.735352 596.351440,382.225708 
	C602.582153,378.047638 608.838196,373.892883 614.836365,369.397217 
	C615.798157,368.676361 615.516357,366.296295 616.033264,364.130829 
	C616.720398,363.430725 617.407532,362.730621 618.533386,361.838318 
	C618.807007,361.638336 618.968140,361.370636 619.000000,360.999481 
	C619.000000,360.999481 619.033813,361.019501 619.733154,360.959656 
	C620.414917,359.899078 621.096680,358.838501 621.933716,357.817383 
	C621.933716,357.817383 621.774536,357.834900 622.369934,357.656769 
M554.035645,537.315186 
	C553.232056,541.014282 552.428406,544.713318 551.624817,548.412415 
	C552.184082,548.583801 552.743347,548.755249 553.302551,548.926697 
	C555.592529,543.921692 557.882507,538.916626 560.647278,533.389160 
	C560.729248,533.168579 560.811279,532.947998 561.415039,532.342163 
	C563.079346,528.873169 564.743652,525.404236 566.847839,521.341675 
	C568.955994,517.190552 571.123291,513.068237 573.162292,508.883423 
	C583.583252,487.495209 594.078003,466.141571 604.274231,444.646454 
	C606.164978,440.660492 607.250854,436.147491 607.901550,431.758148 
	C608.593750,427.088989 606.136597,425.340485 601.573547,426.385529 
	C594.481750,428.009705 590.261780,432.946533 586.377808,439.288208 
	C584.675110,442.557404 582.972412,445.826630 581.116821,449.203979 
	C581.116821,449.203979 581.155518,449.387238 580.632019,449.773010 
	C576.059998,462.529205 571.488037,475.285400 566.539734,488.649536 
	C566.455994,489.112244 566.372192,489.574982 565.908997,490.665283 
	C565.343567,492.779541 564.778076,494.893768 564.003052,497.539276 
	C564.005920,497.729614 564.008728,497.919922 563.742554,498.260254 
	C563.742554,498.260254 563.638611,498.545807 563.638611,498.545807 
	C563.638611,498.545807 563.848877,498.765045 563.420105,499.453857 
	C563.327515,499.982697 563.234924,500.511536 562.795288,501.474884 
	C562.757812,502.003540 562.720337,502.532166 562.297363,503.649353 
	C562.237061,504.111481 562.176819,504.573639 561.696716,505.635071 
	C559.463318,515.108704 557.229858,524.582275 554.763672,534.302612 
	C554.793762,534.629944 554.823792,534.957214 554.604614,535.740417 
	C554.590027,536.080139 554.575439,536.419922 554.622375,536.921326 
	C554.622375,536.921326 554.502747,536.796387 554.035645,537.315186 
M751.203247,411.675446 
	C749.021790,431.819946 744.263245,451.320648 736.152039,469.909576 
	C731.301147,481.026672 724.583252,491.002502 715.057190,498.633179 
	C702.408569,508.765198 688.010925,511.589752 672.200500,507.424530 
	C685.709045,518.088440 701.066772,523.733215 718.081177,524.878174 
	C747.581238,526.863403 774.210632,517.908142 799.219971,503.138519 
	C820.175049,490.763275 837.130432,473.900757 851.821533,454.762665 
	C859.389160,444.904358 866.035767,434.339020 873.676147,423.776062 
	C874.079407,423.254181 874.542542,422.767944 874.877441,422.205414 
	C895.638428,387.337646 909.263733,349.851440 915.685608,309.803070 
	C917.228455,300.181396 917.836182,290.409790 918.927002,280.211212 
	C916.264099,280.094543 914.484802,279.960663 912.704651,279.946777 
	C868.811707,279.604034 825.209473,282.518280 782.007690,290.785950 
	C748.663757,297.167084 715.997620,305.659912 686.136169,322.258636 
	C651.329163,341.606415 629.224243,370.275238 624.536621,410.748962 
	C623.504089,419.663879 624.200378,428.549591 627.101379,438.204163 
	C628.127869,435.366058 628.838745,433.565796 629.434021,431.728149 
	C633.830017,418.157867 642.509155,408.436920 655.444946,402.411560 
	C665.425354,397.762726 676.099792,396.075958 686.668579,397.890442 
	C708.291687,401.602783 729.726624,406.411804 751.203247,411.675446 
M504.108551,939.440247 
	C514.595459,959.928772 525.082336,980.417236 535.421570,1000.617188 
	C535.134583,1001.000977 535.528076,1000.657715 535.694092,1000.226929 
	C552.110413,957.613281 575.781921,919.036560 603.047729,882.763062 
	C626.502075,851.560181 647.161499,819.081299 660.379028,782.137024 
	C673.380920,745.795410 680.653442,708.698853 676.024048,669.980530 
	C670.065491,620.146179 643.959229,584.624634 598.945190,562.842102 
	C596.384338,561.602905 593.372192,561.296387 589.622620,560.305420 
	C591.234192,563.316589 592.198547,565.364807 593.376404,567.281738 
	C607.691956,590.580200 606.444458,614.849487 588.877991,635.764465 
	C580.977722,645.170654 571.832703,653.546875 563.083923,662.220459 
	C553.891724,671.333557 544.497864,680.243286 535.084778,689.345642 
	C533.771484,688.327148 532.796204,687.712036 531.989502,686.924316 
	C516.151184,671.458435 500.068695,656.230713 484.583221,640.418579 
	C468.793610,624.295898 461.987732,605.205017 469.130463,582.884766 
	C471.430542,575.697144 475.247650,568.994934 478.912384,560.869812 
	C476.111633,561.425537 473.575806,561.429077 471.506409,562.413330 
	C433.473328,580.503052 407.537933,608.954895 397.001221,650.322998 
	C390.443909,676.067627 390.611481,702.072144 394.933441,728.118347 
	C402.344666,772.782227 418.709076,814.048889 444.097626,851.412598 
	C463.918335,880.582214 486.053802,908.174133 504.108551,939.440247 
M712.989014,645.492920 
	C708.444946,637.865051 703.900940,630.237183 699.733459,623.241394 
	C696.649292,635.781982 696.885193,649.665100 700.626709,663.349182 
	C710.220093,698.435669 732.486145,723.049316 764.578064,739.201111 
	C795.496643,754.762512 828.592102,763.280640 862.485291,769.279663 
	C903.622986,776.560974 945.107117,779.034424 986.808044,779.068359 
	C990.951294,779.071777 992.153198,777.612061 991.574341,773.781677 
	C989.341125,759.001953 988.039795,744.021667 984.831970,729.459534 
	C972.739624,674.566406 947.626770,626.232056 908.735840,585.581482 
	C872.910889,548.135620 829.617371,528.866821 776.829651,534.911072 
	C762.969604,536.498108 750.666077,541.585144 739.857605,550.539124 
	C748.046814,550.539124 756.189331,549.410950 763.899231,550.758057 
	C784.219421,554.308411 797.194397,567.853760 806.724426,585.170532 
	C816.995300,603.833313 821.378784,624.311035 824.781799,645.075745 
	C825.344971,648.511780 823.111633,649.007324 820.789368,649.476196 
	C800.586121,653.554871 780.505432,658.539429 760.125793,661.353638 
	C742.669861,663.764160 726.331970,659.302673 712.989014,645.492920 
M314.902924,545.534180 
	C294.704742,534.221191 273.010681,531.544067 250.563187,535.432373 
	C215.753754,541.461975 186.395523,558.222595 161.972382,583.365784 
	C113.740440,633.019775 86.912376,692.928040 78.257858,761.276978 
	C77.538864,766.955200 77.450752,772.713379 77.056671,778.627197 
	C79.344322,778.775757 80.820854,778.949951 82.298088,778.956116 
	C122.832420,779.125305 163.187149,776.735107 203.186600,769.905945 
	C234.248596,764.602661 264.660248,756.945679 293.695129,744.338013 
	C324.788025,730.836731 349.251495,710.398804 363.061127,678.746826 
	C371.027924,660.486755 373.322449,641.574158 368.647491,621.113159 
	C367.937561,622.860779 367.478394,623.748291 367.208801,624.690063 
	C359.196747,652.680969 335.218018,664.450073 309.424194,661.371948 
	C288.540314,658.879700 268.028442,653.294250 247.331696,649.180847 
	C244.573074,648.632568 243.781479,647.295715 244.174103,644.681091 
	C246.949692,626.198059 250.828140,607.969421 258.351654,590.782043 
	C264.082489,577.690002 271.652618,565.810608 283.800323,557.507385 
	C295.281769,549.659607 307.939026,548.274658 321.577057,550.064697 
	C319.562561,548.677246 317.548035,547.289795 314.902924,545.534180 
M234.164978,283.256195 
	C206.667984,280.924866 179.145187,279.472382 150.418777,280.243530 
	C152.014267,292.614380 153.006424,304.371643 155.109955,315.926636 
	C165.229172,371.513245 188.472015,420.928101 225.361023,463.861359 
	C253.727661,496.875946 288.157257,519.198486 332.188141,524.355530 
	C353.489685,526.850464 373.640961,523.006836 391.982117,511.373688 
	C393.244659,510.572968 394.409515,509.618164 396.592346,508.025330 
	C367.939331,511.468658 350.396973,502.141907 337.100830,477.609924 
	C328.998138,462.660156 324.235413,446.622742 320.986542,430.065002 
	C319.724274,423.631775 318.782288,417.135742 317.537598,409.735840 
	C340.162079,405.457367 361.720306,400.117981 383.603210,397.593781 
	C405.941467,395.017059 425.111359,402.497253 436.847626,423.320709 
	C439.264862,427.609558 440.674194,432.466461 442.685425,437.398407 
	C445.930084,425.134216 445.951233,413.058838 443.414764,401.065552 
	C436.277435,367.317810 416.845856,342.366028 387.562012,324.886017 
	C362.419556,309.878174 334.864777,300.877869 306.405487,295.094086 
	C282.809326,290.298645 258.863129,287.225891 234.164978,283.256195 
M533.604797,553.760986 
	C533.863953,555.339966 534.123047,556.918945 534.382202,558.497925 
	C536.074829,552.110535 537.193970,545.740112 537.984070,539.329041 
	C541.460510,511.119232 545.510864,482.957581 548.042908,454.661224 
	C550.011597,432.660034 550.290039,410.490997 550.773987,388.384613 
	C550.902527,382.510254 549.500671,376.462372 547.951599,370.723572 
	C545.527039,361.740997 541.574707,358.657166 534.366028,358.797729 
	C527.427124,358.933014 523.213928,362.503479 521.334412,371.475983 
	C519.740234,379.086395 518.191895,386.961182 518.450134,394.657715 
	C519.264038,418.917450 520.126282,443.227661 522.488281,467.369781 
	C525.287781,495.982025 529.666260,524.439819 533.604797,553.760986 
M508.654724,508.826721 
	C508.092560,506.741058 507.555115,504.648346 506.964417,502.570801 
	C500.957855,481.445923 495.080780,460.257965 484.095520,441.000732 
	C480.534119,434.757599 476.499359,428.795959 468.994293,426.545593 
	C463.525818,424.905823 460.646484,427.088898 461.707855,432.625580 
	C462.547333,437.004395 463.598816,441.501526 465.508820,445.489929 
	C476.426086,468.287109 487.565277,490.978973 498.759338,513.642334 
	C504.780365,525.832336 511.061554,537.893799 517.225342,550.013245 
	C517.563965,549.901306 517.902527,549.789368 518.241150,549.677429 
	C515.124634,536.323853 512.008057,522.970276 508.654724,508.826721 
M551.666992,551.042297 
	C551.597473,551.111511 551.527954,551.180725 551.666992,551.042297 
z"/>
<path fill="#BC912C" opacity="1.000000" stroke="none" 
	d="
M503.909088,939.134644 
	C486.053802,908.174133 463.918335,880.582214 444.097626,851.412598 
	C418.709076,814.048889 402.344666,772.782227 394.933441,728.118347 
	C390.611481,702.072144 390.443909,676.067627 397.001221,650.322998 
	C407.537933,608.954895 433.473328,580.503052 471.506409,562.413330 
	C473.575806,561.429077 476.111633,561.425537 478.912384,560.869812 
	C475.247650,568.994934 471.430542,575.697144 469.130463,582.884766 
	C461.987732,605.205017 468.793610,624.295898 484.583221,640.418579 
	C500.068695,656.230713 516.151184,671.458435 531.989502,686.924316 
	C532.796204,687.712036 533.771484,688.327148 535.084778,689.345642 
	C544.497864,680.243286 553.891724,671.333557 563.083923,662.220459 
	C571.832703,653.546875 580.977722,645.170654 588.877991,635.764465 
	C606.444458,614.849487 607.691956,590.580200 593.376404,567.281738 
	C592.198547,565.364807 591.234192,563.316589 589.622620,560.305420 
	C593.372192,561.296387 596.384338,561.602905 598.945190,562.842102 
	C643.959229,584.624634 670.065491,620.146179 676.024048,669.980530 
	C680.653442,708.698853 673.380920,745.795410 660.379028,782.137024 
	C647.161499,819.081299 626.502075,851.560181 603.047729,882.763062 
	C575.781921,919.036560 552.110413,957.613281 535.694092,1000.226929 
	C535.528076,1000.657715 535.134583,1001.000977 535.421570,1000.617188 
	C525.082336,980.417236 514.595459,959.928772 503.909088,939.134644 
z"/>
<path fill="#BC912D" opacity="1.000000" stroke="none" 
	d="
M713.229431,645.754517 
	C726.331970,659.302673 742.669861,663.764160 760.125793,661.353638 
	C780.505432,658.539429 800.586121,653.554871 820.789368,649.476196 
	C823.111633,649.007324 825.344971,648.511780 824.781799,645.075745 
	C821.378784,624.311035 816.995300,603.833313 806.724426,585.170532 
	C797.194397,567.853760 784.219421,554.308411 763.899231,550.758057 
	C756.189331,549.410950 748.046814,550.539124 739.857605,550.539124 
	C750.666077,541.585144 762.969604,536.498108 776.829651,534.911072 
	C829.617371,528.866821 872.910889,548.135620 908.735840,585.581482 
	C947.626770,626.232056 972.739624,674.566406 984.831970,729.459534 
	C988.039795,744.021667 989.341125,759.001953 991.574341,773.781677 
	C992.153198,777.612061 990.951294,779.071777 986.808044,779.068359 
	C945.107117,779.034424 903.622986,776.560974 862.485291,769.279663 
	C828.592102,763.280640 795.496643,754.762512 764.578064,739.201111 
	C732.486145,723.049316 710.220093,698.435669 700.626709,663.349182 
	C696.885193,649.665100 696.649292,635.781982 699.733459,623.241394 
	C703.900940,630.237183 708.444946,637.865051 713.229431,645.754517 
z"/>
<path fill="#BC912D" opacity="1.000000" stroke="none" 
	d="
M315.218231,545.718262 
	C317.548035,547.289795 319.562561,548.677246 321.577057,550.064697 
	C307.939026,548.274658 295.281769,549.659607 283.800323,557.507385 
	C271.652618,565.810608 264.082489,577.690002 258.351654,590.782043 
	C250.828140,607.969421 246.949692,626.198059 244.174103,644.681091 
	C243.781479,647.295715 244.573074,648.632568 247.331696,649.180847 
	C268.028442,653.294250 288.540314,658.879700 309.424194,661.371948 
	C335.218018,664.450073 359.196747,652.680969 367.208801,624.690063 
	C367.478394,623.748291 367.937561,622.860779 368.647491,621.113159 
	C373.322449,641.574158 371.027924,660.486755 363.061127,678.746826 
	C349.251495,710.398804 324.788025,730.836731 293.695129,744.338013 
	C264.660248,756.945679 234.248596,764.602661 203.186600,769.905945 
	C163.187149,776.735107 122.832420,779.125305 82.298088,778.956116 
	C80.820854,778.949951 79.344322,778.775757 77.056671,778.627197 
	C77.450752,772.713379 77.538864,766.955200 78.257858,761.276978 
	C86.912376,692.928040 113.740440,633.019775 161.972382,583.365784 
	C186.395523,558.222595 215.753754,541.461975 250.563187,535.432373 
	C273.010681,531.544067 294.704742,534.221191 315.218231,545.718262 
z"/>
<path fill="#BC912D" opacity="1.000000" stroke="none" 
	d="
M234.618484,283.323090 
	C258.863129,287.225891 282.809326,290.298645 306.405487,295.094086 
	C334.864777,300.877869 362.419556,309.878174 387.562012,324.886017 
	C416.845856,342.366028 436.277435,367.317810 443.414764,401.065552 
	C445.951233,413.058838 445.930084,425.134216 442.685425,437.398407 
	C440.674194,432.466461 439.264862,427.609558 436.847626,423.320709 
	C425.111359,402.497253 405.941467,395.017059 383.603210,397.593781 
	C361.720306,400.117981 340.162079,405.457367 317.537598,409.735840 
	C318.782288,417.135742 319.724274,423.631775 320.986542,430.065002 
	C324.235413,446.622742 328.998138,462.660156 337.100830,477.609924 
	C350.396973,502.141907 367.939331,511.468658 396.592346,508.025330 
	C394.409515,509.618164 393.244659,510.572968 391.982117,511.373688 
	C373.640961,523.006836 353.489685,526.850464 332.188141,524.355530 
	C288.157257,519.198486 253.727661,496.875946 225.361023,463.861359 
	C188.472015,420.928101 165.229172,371.513245 155.109955,315.926636 
	C153.006424,304.371643 152.014267,292.614380 150.418777,280.243530 
	C179.145187,279.472382 206.667984,280.924866 234.618484,283.323090 
z"/>
<path fill="#BC912D" opacity="1.000000" stroke="none" 
	d="
M482.893280,145.972565 
	C482.893280,145.972580 483.153046,145.752899 483.497498,145.437073 
	C484.654297,143.839951 485.466644,142.558640 486.278992,141.277328 
	C486.278992,141.277328 486.008942,141.182129 486.447571,141.097168 
	C488.607880,138.354156 490.329498,135.696091 492.051147,133.038025 
	C492.051147,133.038025 492.000824,132.999893 492.324219,132.877747 
	C495.879028,127.622780 499.110443,122.489967 502.341858,117.357147 
	C502.341858,117.357147 502.155823,117.247322 502.551636,117.145416 
	C503.657379,115.713974 504.367340,114.384438 505.077301,113.054901 
	C505.077301,113.054901 505.007080,112.998047 505.336121,112.881615 
	C515.647278,94.484016 525.629395,76.202858 535.444336,58.227863 
	C535.270447,57.927139 535.698547,58.597946 536.060181,59.302822 
	C544.920471,76.573982 553.139587,94.214859 562.833618,111.004242 
	C570.266052,123.876663 579.557983,135.675430 588.022888,147.951721 
	C588.022888,147.951721 587.994446,147.992844 588.037964,148.312469 
	C589.055054,149.752701 590.028564,150.873306 591.002136,151.993912 
	C591.002136,151.993912 591.000000,152.000000 591.039429,152.343521 
	C594.321533,157.108521 597.711548,161.430252 600.783264,165.967453 
	C622.870850,198.593002 637.468750,234.169235 641.601135,273.522369 
	C643.846375,294.903992 642.446045,316.127106 633.602661,336.198517 
	C631.069397,341.948151 627.930664,347.431000 625.069458,353.036133 
	C625.069519,353.036163 625.003113,353.007233 624.730591,353.154053 
	C623.975464,354.199585 623.492859,355.098297 623.010254,355.997040 
	C623.010254,355.997040 622.785095,356.217590 622.515015,356.521271 
	C622.088074,357.161591 621.931335,357.498260 621.774536,357.834900 
	C621.774536,357.834900 621.933716,357.817383 621.554565,357.896851 
	C620.461548,358.990753 619.747681,360.005127 619.033813,361.019501 
	C619.033813,361.019501 619.000000,360.999481 618.760132,361.077606 
	C618.378357,361.447327 618.236572,361.738922 618.094727,362.030518 
	C617.407532,362.730621 616.720398,363.430725 615.600037,364.517273 
	C607.686340,370.876862 600.205872,376.849976 592.725464,382.823120 
	C592.725464,382.823151 592.340271,382.915649 591.833740,383.050507 
	C586.656799,385.226318 581.986267,387.267242 577.197998,389.195618 
	C577.080200,389.083008 576.843140,388.859406 576.893799,388.511963 
	C578.644104,384.782166 580.343811,381.399811 582.043457,378.017487 
	C582.043457,378.017487 582.251709,377.770874 582.552185,377.369873 
	C589.553467,361.753754 586.841797,343.464539 576.432739,333.668304 
	C576.432739,333.668304 576.358643,333.643890 576.291687,333.286652 
	C565.491272,322.276276 554.757874,311.623108 544.024414,300.969940 
	C544.024414,300.969940 544.001953,301.001221 543.947876,300.689209 
	C543.262756,299.922302 542.631836,299.467468 542.000854,299.012604 
	C541.484314,298.429657 540.967773,297.846710 540.057617,296.842712 
	C538.005615,294.901581 536.347107,293.381531 534.414001,291.609741 
	C524.525513,301.305206 515.017029,310.584717 505.562714,319.919067 
	C501.774780,323.658936 497.976257,327.402008 494.405914,331.345917 
	C481.813171,345.256256 479.444946,362.665070 487.772369,379.440674 
	C489.437866,382.795807 491.263214,386.071533 493.323944,389.968292 
	C491.186676,389.491821 489.635162,389.145935 488.083649,388.800079 
	C488.083649,388.800079 487.862671,388.607971 487.514160,388.329041 
	C479.795868,383.668945 472.426025,379.287811 465.056213,374.906677 
	C464.690643,374.559357 464.325104,374.212067 463.579834,373.478119 
	C458.139465,368.054779 453.078796,363.018066 448.018127,357.981323 
	C448.018127,357.981323 448.000000,358.000000 447.964264,357.648132 
	C439.960114,346.448486 434.168549,334.590454 430.895721,321.483978 
	C424.561646,296.118073 426.259399,270.893951 432.789215,245.955093 
	C436.149292,233.122192 440.919312,220.658463 445.052216,208.027908 
	C445.155975,207.886642 445.259766,207.745377 445.676361,207.133881 
	C453.292297,193.435699 460.305237,180.035553 468.011353,167.046661 
	C472.385498,159.673996 477.895050,152.974976 482.893280,145.972565 
z"/>
<path fill="#BB9232" opacity="1.000000" stroke="none" 
	d="
M533.482605,553.362793 
	C529.666260,524.439819 525.287781,495.982025 522.488281,467.369781 
	C520.126282,443.227661 519.264038,418.917450 518.450134,394.657715 
	C518.191895,386.961182 519.740234,379.086395 521.334412,371.475983 
	C523.213928,362.503479 527.427124,358.933014 534.366028,358.797729 
	C541.574707,358.657166 545.527039,361.740997 547.951599,370.723572 
	C549.500671,376.462372 550.902527,382.510254 550.773987,388.384613 
	C550.290039,410.490997 550.011597,432.660034 548.042908,454.661224 
	C545.510864,482.957581 541.460510,511.119232 537.984070,539.329041 
	C537.193970,545.740112 536.074829,552.110535 534.382202,558.497925 
	C534.123047,556.918945 533.863953,555.339966 533.482605,553.362793 
z"/>
<path fill="#B99337" opacity="1.000000" stroke="none" 
	d="
M508.773132,509.221741 
	C512.008057,522.970276 515.124634,536.323853 518.241150,549.677429 
	C517.902527,549.789368 517.563965,549.901306 517.225342,550.013245 
	C511.061554,537.893799 504.780365,525.832336 498.759338,513.642334 
	C487.565277,490.978973 476.426086,468.287109 465.508820,445.489929 
	C463.598816,441.501526 462.547333,437.004395 461.707855,432.625580 
	C460.646484,427.088898 463.525818,424.905823 468.994293,426.545593 
	C476.499359,428.795959 480.534119,434.757599 484.095520,441.000732 
	C495.080780,460.257965 500.957855,481.445923 506.964417,502.570801 
	C507.555115,504.648346 508.092560,506.741058 508.773132,509.221741 
z"/>
<path fill="#BA9335" opacity="1.000000" stroke="none" 
	d="
M562.116516,505.035767 
	C562.176819,504.573639 562.237061,504.111481 562.712402,503.276245 
	C563.132324,502.282227 563.137329,501.661285 563.142334,501.040375 
	C563.234924,500.511536 563.327515,499.982697 563.690308,499.011108 
	C563.960449,498.568329 564.011536,498.110260 564.011536,498.110260 
	C564.008728,497.919922 564.005920,497.729614 564.440186,497.201172 
	C565.347656,494.587952 565.818054,492.312805 566.288452,490.037689 
	C566.372192,489.574982 566.455994,489.112244 566.979980,488.184418 
	C569.192993,483.317474 571.130493,478.973602 572.702942,474.501373 
	C575.632629,466.169434 578.349792,457.762787 581.155518,449.387238 
	C581.155518,449.387238 581.116821,449.203979 581.516846,449.056427 
	C583.600464,445.595306 585.284180,442.281769 586.967834,438.968201 
	C590.261780,432.946533 594.481750,428.009705 601.573547,426.385529 
	C606.136597,425.340485 608.593750,427.088989 607.901550,431.758148 
	C607.250854,436.147491 606.164978,440.660492 604.274231,444.646454 
	C594.078003,466.141571 583.583252,487.495209 573.162292,508.883423 
	C571.123291,513.068237 568.955994,517.190552 566.327576,521.725708 
	C564.169250,525.648987 562.531250,529.188171 560.893250,532.727417 
	C560.811279,532.947998 560.729248,533.168579 560.138794,533.751709 
	C558.793274,535.312927 558.099365,536.672974 557.035706,537.615723 
	C556.698425,537.914673 555.374939,537.100952 554.502747,536.796387 
	C554.502747,536.796387 554.622375,536.921326 554.966614,536.717346 
	C557.150757,530.009216 559.218079,523.557922 560.744507,516.980957 
	C561.644775,513.102051 561.687866,509.024170 562.116516,505.035767 
z"/>
<path fill="#B69D56" opacity="1.000000" stroke="none" 
	d="
M751.239014,410.769257 
	C729.726624,406.411804 708.291687,401.602783 686.668579,397.890442 
	C676.099792,396.075958 665.425354,397.762726 655.444946,402.411560 
	C642.509155,408.436920 633.830017,418.157867 629.434021,431.728149 
	C628.838745,433.565796 628.127869,435.366058 627.101379,438.204163 
	C624.200378,428.549591 623.504089,419.663879 624.536621,410.748962 
	C629.224243,370.275238 651.329163,341.606415 686.136169,322.258636 
	C715.997620,305.659912 748.663757,297.167084 782.007690,290.785950 
	C825.209473,282.518280 868.811707,279.604034 912.704651,279.946777 
	C914.484802,279.960663 916.264099,280.094543 918.927002,280.211212 
	C917.836182,290.409790 917.228455,300.181396 915.685608,309.803070 
	C909.263733,349.851440 895.638428,387.337646 874.877441,422.205414 
	C874.542542,422.767944 874.079407,423.254181 873.309692,423.862030 
	C872.943176,423.947998 872.787720,423.802948 872.853149,423.434875 
	C877.164612,414.385315 880.851624,405.369812 885.791870,397.103241 
	C892.633545,385.655212 896.697083,373.127197 900.862488,360.714844 
	C905.219360,347.732086 908.569275,334.345459 911.379028,320.930084 
	C913.674744,309.968475 914.487244,298.699066 916.040955,287.577850 
	C916.641296,283.281067 915.218140,281.714172 910.646851,281.886505 
	C887.735107,282.750305 864.807434,283.195831 841.896179,284.069763 
	C835.136780,284.327576 828.371094,285.245880 821.681641,286.319122 
	C811.293579,287.985748 800.967468,290.039185 790.616882,291.938293 
	C779.584351,293.962585 768.446045,295.547333 757.552429,298.153564 
	C746.341980,300.835602 735.268066,304.210968 724.331482,307.871826 
	C717.036316,310.313751 710.306702,314.594238 702.929810,316.607544 
	C691.982788,319.595245 683.071777,326.121460 674.208740,332.326691 
	C665.819031,338.200470 658.741394,346.035706 651.454163,353.373260 
	C643.565308,361.316620 638.724060,371.300781 634.004333,381.311920 
	C629.367310,391.147736 627.081726,401.582306 626.189453,412.314636 
	C625.761841,417.458527 626.115845,422.667389 626.115845,429.072784 
	C627.997009,427.533203 628.939270,427.157837 629.116150,426.557068 
	C631.250916,419.305542 636.652527,414.502563 641.229065,408.867615 
	C647.114136,401.621552 655.304688,398.604614 663.000000,397.535950 
	C675.493103,395.801025 688.581299,395.927551 701.119385,397.561890 
	C716.313782,399.542511 731.215454,403.830505 746.192749,407.337891 
	C748.060852,407.775330 749.617615,409.542114 751.298706,410.711975 
	C751.278809,410.731079 751.239014,410.769257 751.239014,410.769257 
z"/>
<path fill="#B69D56" opacity="1.000000" stroke="none" 
	d="
M873.020874,424.020569 
	C866.035767,434.339020 859.389160,444.904358 851.821533,454.762665 
	C837.130432,473.900757 820.175049,490.763275 799.219971,503.138519 
	C774.210632,517.908142 747.581238,526.863403 718.081177,524.878174 
	C701.066772,523.733215 685.709045,518.088440 672.200500,507.424530 
	C688.010925,511.589752 702.408569,508.765198 715.057190,498.633179 
	C724.583252,491.002502 731.301147,481.026672 736.152039,469.909576 
	C744.263245,451.320648 749.021790,431.819946 751.221130,411.222351 
	C751.239014,410.769257 751.278809,410.731079 751.630737,410.899963 
	C752.190979,412.941589 752.820984,414.882568 752.531128,416.674744 
	C751.531921,422.851044 750.622681,429.091431 748.928467,435.095520 
	C745.324402,447.868134 742.353149,460.998108 737.005249,473.041382 
	C732.970764,482.126801 726.385376,490.438446 719.540100,497.796387 
	C714.595276,503.111450 708.133301,507.549896 700.112732,508.551605 
	C694.503540,509.252106 689.002014,510.814514 682.412903,512.212524 
	C684.432312,513.381531 685.684143,514.429749 687.123474,514.884766 
	C694.288513,517.149536 701.405945,519.688538 708.718933,521.337891 
	C727.658691,525.609375 746.259705,522.844849 764.285645,516.742065 
	C780.352112,511.302643 795.977783,504.730103 809.051086,493.289307 
	C815.492065,487.652710 823.290344,483.385315 829.025146,477.162781 
	C839.831848,465.437164 849.636230,452.783051 859.760559,440.435608 
	C864.224670,434.991211 868.452576,429.353119 872.787720,423.802948 
	C872.787720,423.802948 872.943176,423.947998 873.020874,424.020569 
z"/>
<path fill="#F8F0D0" opacity="1.000000" stroke="none" 
	d="
M625.415283,352.995239 
	C627.930664,347.431000 631.069397,341.948151 633.602661,336.198517 
	C642.446045,316.127106 643.846375,294.903992 641.601135,273.522369 
	C637.468750,234.169235 622.870850,198.593002 600.783264,165.967453 
	C597.711548,161.430252 594.321533,157.108521 591.042175,152.342804 
	C593.239685,153.614685 596.044495,154.809769 597.604187,156.923599 
	C602.880127,164.074066 608.259766,171.246399 612.571411,178.983429 
	C617.301514,187.471436 621.186646,196.472885 624.903503,205.472198 
	C629.547363,216.716064 634.218872,228.009872 637.775696,239.619949 
	C640.166809,247.425140 640.136047,255.941284 642.095032,263.916779 
	C645.452759,277.587402 644.046021,291.401886 643.740173,305.098053 
	C643.465271,317.407013 638.938416,329.041504 633.773560,340.177002 
	C631.675049,344.701569 628.465271,348.710663 625.415283,352.995239 
z"/>
<path fill="#F8F0D0" opacity="1.000000" stroke="none" 
	d="
M588.029602,147.577179 
	C579.557983,135.675430 570.266052,123.876663 562.833618,111.004242 
	C553.139587,94.214859 544.920471,76.573982 536.060181,59.302822 
	C535.698547,58.597946 535.270447,57.927139 535.444336,58.227863 
	C525.629395,76.202858 515.647278,94.484016 505.363098,112.917686 
	C504.883453,106.630974 509.903961,102.562820 512.340454,97.319664 
	C514.621826,92.410324 517.772156,87.906448 520.080139,83.007469 
	C524.034973,74.612793 527.551575,66.012016 531.475586,57.601997 
	C531.985657,56.508820 533.848816,55.402576 535.030701,55.458282 
	C536.096863,55.508526 537.517517,56.949295 538.043457,58.111095 
	C541.637085,66.049889 544.778076,74.201820 548.575684,82.037514 
	C551.863770,88.821953 555.733154,95.333443 559.519409,101.864876 
	C562.488037,106.985954 565.603760,112.031319 568.865173,116.970985 
	C574.278931,125.170532 579.912231,133.225037 585.333984,141.419449 
	C586.495361,143.174744 587.148865,145.266083 588.029602,147.577179 
z"/>
<path fill="#F8F0D0" opacity="1.000000" stroke="none" 
	d="
M444.734558,208.169952 
	C440.919312,220.658463 436.149292,233.122192 432.789215,245.955093 
	C426.259399,270.893951 424.561646,296.118073 430.895721,321.483978 
	C434.168549,334.590454 439.960114,346.448486 447.974335,357.639771 
	C445.411865,355.714050 442.058899,353.901215 440.335938,351.089539 
	C435.310852,342.889252 430.942017,334.186005 429.478668,324.582092 
	C427.614685,312.348846 425.255035,299.999664 425.304688,287.709320 
	C425.387756,267.142303 428.810699,246.949982 436.416504,227.546661 
	C438.955536,221.069336 439.834869,213.945541 444.734558,208.169952 
z"/>
<path fill="#F8F0D0" opacity="1.000000" stroke="none" 
	d="
M488.115204,389.180908 
	C489.635162,389.145935 491.186676,389.491821 493.323944,389.968292 
	C491.263214,386.071533 489.437866,382.795807 487.772369,379.440674 
	C479.444946,362.665070 481.813171,345.256256 494.405914,331.345917 
	C497.976257,327.402008 501.774780,323.658936 505.562714,319.919067 
	C515.017029,310.584717 524.525513,301.305206 534.414001,291.609741 
	C536.347107,293.381531 538.005615,294.901581 539.781494,296.734558 
	C538.222351,297.651276 536.539490,298.238586 534.875427,298.875244 
	C534.602112,298.979797 534.288086,299.535583 534.200928,299.489471 
	C527.813782,296.110321 527.109192,302.809418 524.313904,305.318451 
	C517.174988,311.726349 510.057800,318.235962 503.631836,325.338196 
	C497.601532,332.003082 490.532440,337.844391 487.309357,346.930450 
	C484.212708,355.660004 483.598755,364.168304 487.132446,372.560059 
	C489.263489,377.620697 492.860199,382.048126 495.535004,386.905090 
	C496.382629,388.444305 496.379822,390.451843 496.966278,393.173676 
	C493.583557,391.788330 490.865143,390.675049 488.115204,389.180908 
z"/>
<path fill="#F8F0D0" opacity="1.000000" stroke="none" 
	d="
M482.539429,146.009949 
	C477.895050,152.974976 472.385498,159.673996 468.011353,167.046661 
	C460.305237,180.035553 453.292297,193.435699 445.757935,206.883911 
	C445.378998,206.031570 444.768768,204.739487 445.157104,203.921265 
	C448.099487,197.720871 451.365662,191.673599 454.286835,185.463760 
	C459.679321,174.000412 467.436005,164.130402 474.794098,153.951523 
	C476.981171,150.926010 478.258362,147.343155 482.539429,146.009949 
z"/>
<path fill="#F8F0D0" opacity="1.000000" stroke="none" 
	d="
M544.010864,301.342377 
	C554.757874,311.623108 565.491272,322.276276 576.295044,333.247803 
	C574.694702,332.898590 572.607422,332.654083 571.425598,331.490173 
	C566.304749,326.447113 561.379517,321.198639 556.516296,315.902618 
	C552.251160,311.257935 548.163391,306.450409 544.010864,301.342377 
z"/>
<path fill="#F8F0D0" opacity="1.000000" stroke="none" 
	d="
M576.317505,334.033173 
	C586.841797,343.464539 589.553467,361.753754 582.567871,377.209229 
	C582.867432,371.912933 583.693909,366.388702 583.980347,360.836639 
	C584.424194,352.233704 582.167297,344.261292 577.455811,337.006500 
	C576.934692,336.204071 576.615295,335.270691 576.317505,334.033173 
z"/>
<path fill="#F8F0D0" opacity="1.000000" stroke="none" 
	d="
M577.315735,389.308197 
	C581.986267,387.267242 586.656799,385.226318 591.680054,383.175446 
	C589.142395,385.380249 586.450867,387.953094 583.301941,389.702667 
	C580.505066,391.256683 577.200562,391.897156 573.758362,393.063416 
	C573.038513,389.931824 571.630676,387.263062 575.636169,385.468353 
	C576.729736,384.978333 577.169800,383.127930 578.029175,381.992310 
	C579.057373,380.633514 580.213745,379.371765 581.679077,378.042725 
	C580.343811,381.399811 578.644104,384.782166 576.685303,388.623840 
	C576.481750,389.340485 576.537415,389.597748 576.593079,389.855042 
	C576.833984,389.672760 577.074890,389.490479 577.315735,389.308197 
z"/>
<path fill="#B39D5B" opacity="1.000000" stroke="none" 
	d="
M580.893799,449.580139 
	C578.349792,457.762787 575.632629,466.169434 572.702942,474.501373 
	C571.130493,478.973602 569.192993,483.317474 567.168152,487.880432 
	C571.488037,475.285400 576.059998,462.529205 580.893799,449.580139 
z"/>
<path fill="#F8F0D0" opacity="1.000000" stroke="none" 
	d="
M593.122681,382.877563 
	C600.205872,376.849976 607.686340,370.876862 615.488159,364.793457 
	C615.516357,366.296295 615.798157,368.676361 614.836365,369.397217 
	C608.838196,373.892883 602.582153,378.047638 596.351440,382.225708 
	C595.591431,382.735352 594.472473,382.709656 593.122681,382.877563 
z"/>
<path fill="#B39D5B" opacity="1.000000" stroke="none" 
	d="
M561.906616,505.335419 
	C561.687866,509.024170 561.644775,513.102051 560.744507,516.980957 
	C559.218079,523.557922 557.150757,530.009216 554.935852,536.636475 
	C554.575439,536.419922 554.590027,536.080139 554.785095,535.206665 
	C554.975891,534.467285 554.986145,534.261597 554.996460,534.055908 
	C557.229858,524.582275 559.463318,515.108704 561.906616,505.335419 
z"/>
<path fill="#F8F0D0" opacity="1.000000" stroke="none" 
	d="
M465.061371,375.261841 
	C472.426025,379.287811 479.795868,383.668945 487.367798,388.330566 
	C486.754272,388.720795 485.712189,389.211792 485.157410,388.882324 
	C478.252136,384.781494 469.898010,382.849091 465.061371,375.261841 
z"/>
<path fill="#F8F0D0" opacity="1.000000" stroke="none" 
	d="
M447.996979,358.349670 
	C453.078796,363.018066 458.139465,368.054779 463.329987,373.406494 
	C462.338684,373.609711 460.719360,373.935608 460.175629,373.316650 
	C455.991516,368.553680 452.016022,363.607422 447.996979,358.349670 
z"/>
<path fill="#B4A16A" opacity="1.000000" stroke="none" 
	d="
M554.269165,537.055786 
	C555.374939,537.100952 556.698425,537.914673 557.035706,537.615723 
	C558.099365,536.672974 558.793274,535.312927 559.901367,534.012939 
	C557.882507,538.916626 555.592529,543.921692 553.302551,548.926697 
	C552.743347,548.755249 552.184082,548.583801 551.624817,548.412415 
	C552.428406,544.713318 553.232056,541.014282 554.269165,537.055786 
z"/>
<path fill="#F8F0D0" opacity="1.000000" stroke="none" 
	d="
M501.977234,117.282578 
	C499.110443,122.489967 495.879028,127.622780 492.344849,132.901550 
	C491.776245,129.723679 492.005493,127.116028 495.631775,125.000664 
	C498.249786,123.473480 499.662384,119.879944 501.977234,117.282578 
z"/>
<path fill="#F8F0D0" opacity="1.000000" stroke="none" 
	d="
M491.694763,133.053558 
	C490.329498,135.696091 488.607880,138.354156 486.583008,141.136078 
	C486.384613,137.553024 487.712006,134.601135 491.694763,133.053558 
z"/>
<path fill="#B4A16A" opacity="1.000000" stroke="none" 
	d="
M561.154175,532.534790 
	C562.531250,529.188171 564.169250,525.648987 566.107666,522.022522 
	C564.743652,525.404236 563.079346,528.873169 561.154175,532.534790 
z"/>
<path fill="#B39D5B" opacity="1.000000" stroke="none" 
	d="
M586.672852,439.128204 
	C585.284180,442.281769 583.600464,445.595306 581.593262,449.002350 
	C582.972412,445.826630 584.675110,442.557404 586.672852,439.128204 
z"/>
<path fill="#B39D5B" opacity="1.000000" stroke="none" 
	d="
M566.098755,490.351501 
	C565.818054,492.312805 565.347656,494.587952 564.544922,496.935547 
	C564.778076,494.893768 565.343567,492.779541 566.098755,490.351501 
z"/>
<path fill="#F8F0D0" opacity="1.000000" stroke="none" 
	d="
M485.903809,141.223999 
	C485.466644,142.558640 484.654297,143.839951 483.542267,145.272980 
	C484.004578,144.006699 484.766602,142.588699 485.903809,141.223999 
z"/>
<path fill="#F8F0D0" opacity="1.000000" stroke="none" 
	d="
M504.719696,113.076462 
	C504.367340,114.384438 503.657379,115.713974 502.656372,117.171768 
	C503.030914,115.899361 503.696503,114.498688 504.719696,113.076462 
z"/>
<path fill="#F8F0D0" opacity="1.000000" stroke="none" 
	d="
M591.019409,151.631561 
	C590.028564,150.873306 589.055054,149.752701 588.062439,148.307602 
	C589.041138,149.078491 590.038879,150.173859 591.019409,151.631561 
z"/>
<path fill="#F8F0D0" opacity="1.000000" stroke="none" 
	d="
M619.383484,360.989563 
	C619.747681,360.005127 620.461548,358.990753 621.476929,357.877136 
	C621.096680,358.838501 620.414917,359.899078 619.383484,360.989563 
z"/>
<path fill="#F8F0D0" opacity="1.000000" stroke="none" 
	d="
M623.350952,355.954651 
	C623.492859,355.098297 623.975464,354.199585 624.749756,353.184814 
	C624.591431,354.016571 624.141479,354.964386 623.350952,355.954651 
z"/>
<path fill="#B39D5B" opacity="1.000000" stroke="none" 
	d="
M562.968811,501.257629 
	C563.137329,501.661285 563.132324,502.282227 562.905151,502.981995 
	C562.720337,502.532166 562.757812,502.003540 562.968811,501.257629 
z"/>
<path fill="#F8F0D0" opacity="1.000000" stroke="none" 
	d="
M542.024353,299.340454 
	C542.631836,299.467468 543.262756,299.922302 543.963074,300.676575 
	C543.370911,300.540131 542.709351,300.104248 542.024353,299.340454 
z"/>
<path fill="#B4A16A" opacity="1.000000" stroke="none" 
	d="
M551.562744,551.146118 
	C551.527954,551.180725 551.597473,551.111511 551.562744,551.146118 
z"/>
<path fill="#B39D5B" opacity="1.000000" stroke="none" 
	d="
M563.877075,498.185242 
	C564.011536,498.110260 563.960449,498.568329 563.904663,498.666687 
	C563.848877,498.765045 563.638611,498.545807 563.638611,498.545807 
	C563.638611,498.545807 563.742554,498.260254 563.877075,498.185242 
z"/>
<path fill="#B4A16A" opacity="1.000000" stroke="none" 
	d="
M554.880066,534.179260 
	C554.986145,534.261597 554.975891,534.467285 554.909729,534.978760 
	C554.823792,534.957214 554.793762,534.629944 554.880066,534.179260 
z"/>
<path fill="#F8F0D0" opacity="1.000000" stroke="none" 
	d="
M618.314087,361.934448 
	C618.236572,361.738922 618.378357,361.447327 618.768433,361.095459 
	C618.968140,361.370636 618.807007,361.638336 618.314087,361.934448 
z"/>
<path fill="#F8F0D0" opacity="1.000000" stroke="none" 
	d="
M622.072266,357.745850 
	C621.931335,357.498260 622.088074,357.161591 622.490234,356.676941 
	C622.613647,356.904846 622.491821,357.280823 622.072266,357.745850 
z"/>
<path fill="#BC912D" opacity="1.000000" stroke="none" 
	d="
M872.853149,423.434875 
	C868.452576,429.353119 864.224670,434.991211 859.760559,440.435608 
	C849.636230,452.783051 839.831848,465.437164 829.025146,477.162781 
	C823.290344,483.385315 815.492065,487.652710 809.051086,493.289307 
	C795.977783,504.730103 780.352112,511.302643 764.285645,516.742065 
	C746.259705,522.844849 727.658691,525.609375 708.718933,521.337891 
	C701.405945,519.688538 694.288513,517.149536 687.123474,514.884766 
	C685.684143,514.429749 684.432312,513.381531 682.412903,512.212524 
	C689.002014,510.814514 694.503540,509.252106 700.112732,508.551605 
	C708.133301,507.549896 714.595276,503.111450 719.540100,497.796387 
	C726.385376,490.438446 732.970764,482.126801 737.005249,473.041382 
	C742.353149,460.998108 745.324402,447.868134 748.928467,435.095520 
	C750.622681,429.091431 751.531921,422.851044 752.531128,416.674744 
	C752.820984,414.882568 752.190979,412.941589 751.650635,410.880859 
	C749.617615,409.542114 748.060852,407.775330 746.192749,407.337891 
	C731.215454,403.830505 716.313782,399.542511 701.119385,397.561890 
	C688.581299,395.927551 675.493103,395.801025 663.000000,397.535950 
	C655.304688,398.604614 647.114136,401.621552 641.229065,408.867615 
	C636.652527,414.502563 631.250916,419.305542 629.116150,426.557068 
	C628.939270,427.157837 627.997009,427.533203 626.115845,429.072784 
	C626.115845,422.667389 625.761841,417.458527 626.189453,412.314636 
	C627.081726,401.582306 629.367310,391.147736 634.004333,381.311920 
	C638.724060,371.300781 643.565308,361.316620 651.454163,353.373260 
	C658.741394,346.035706 665.819031,338.200470 674.208740,332.326691 
	C683.071777,326.121460 691.982788,319.595245 702.929810,316.607544 
	C710.306702,314.594238 717.036316,310.313751 724.331482,307.871826 
	C735.268066,304.210968 746.341980,300.835602 757.552429,298.153564 
	C768.446045,295.547333 779.584351,293.962585 790.616882,291.938293 
	C800.967468,290.039185 811.293579,287.985748 821.681641,286.319122 
	C828.371094,285.245880 835.136780,284.327576 841.896179,284.069763 
	C864.807434,283.195831 887.735107,282.750305 910.646851,281.886505 
	C915.218140,281.714172 916.641296,283.281067 916.040955,287.577850 
	C914.487244,298.699066 913.674744,309.968475 911.379028,320.930084 
	C908.569275,334.345459 905.219360,347.732086 900.862488,360.714844 
	C896.697083,373.127197 892.633545,385.655212 885.791870,397.103241 
	C880.851624,405.369812 877.164612,414.385315 872.853149,423.434875 
z"/>
<path fill="#BC912D" opacity="1.000000" stroke="none" 
	d="
M577.197998,389.195618 
	C577.074890,389.490479 576.833984,389.672760 576.593079,389.855042 
	C576.537415,389.597748 576.481750,389.340485 576.634644,388.971313 
	C576.843140,388.859406 577.080200,389.083008 577.197998,389.195618 
z"/>
</svg>